# xmcd
#
# Track frame offsets:
#	150
#	131777
#	158640
#	236304
#	263990
#	288185
#	330936
#
# Disc length: 4811 seconds
#
# Revision: 1
# Processed by: cddbd v1.5.2PL0 Copyright (c) Steve Scherf et al.
# Submitted via: audiograbber 1.83.01
#
DISCID=5612c907
DTITLE=Betts,Dickey&Great Southern - Live at Rockpalast 1978+2008 [CD 2)
DYEAR=2019
DGENRE=Blues
TTITLE0=High falls (incl. Drum Solo) (Essen 1978)
TTITLE1=Ramblin' man (Essen 1978)
TTITLE2=If I miss this train/Rockpalast Jam (bonustrack: Spirit ft. Dickey Bett
TTITLE2=s) (Essen 1978)
TTITLE3=Statesboro Blues (Bonn 2008)
TTITLE4=Nothing you can do (Bonn 2008)
TTITLE5=Blue sky (Bonn 2008)
TTITLE6=Get away (Bonn 2008)
EXTD=
EXTT0=
EXTT1=
EXTT2=
EXTT3=
EXTT4=
EXTT5=
EXTT6=
PLAYORDER=
